<svg version="1.2" xmlns="http://www.w3.org/2000/svg" viewBox="0 0 1248 1248" width="1248" height="1248">
	<style>
		.s0 { fill: #f8f6f2 } 
		.s1 { fill: #205594 } 
	</style>
	<g id="Background">
		<path id="Path 0" class="s0" d="m0 624v624h1248v-1248h-1248z"/>
		<path id="Path 1" class="s1" d="m366 474.25c0 10.59-0.31 32.07-0.7 47.75l-0.7 28.5c-9.38-7.38-15.25-11.06-19.1-12.94-3.85-1.87-10.6-4.41-15-5.64-6.28-1.75-10.58-2.22-20-2.2q-12 0.03-19 1.77c-3.85 0.96-10.15 3.18-14 4.94-3.85 1.75-9.7 5.02-13 7.25-3.3 2.24-8.44 6.49-11.42 9.45-2.99 2.95-7.12 7.62-9.19 10.37-2.08 2.75-5.55 8.83-7.72 13.5-2.17 4.67-4.77 11.65-5.78 15.5-1.37 5.23-1.81 10.42-1.75 20.5 0.08 11.61 0.47 14.76 2.78 22.5 1.49 4.95 4.52 12.38 6.74 16.5 2.22 4.13 6.35 10.34 9.19 13.82 2.83 3.48 8.3 8.84 12.15 11.91 3.85 3.08 11.05 7.5 16 9.83 4.95 2.33 12.15 5.02 16 5.99 4.81 1.2 10.91 1.75 19.5 1.75 8.51 0 14.74-0.55 19.5-1.73 3.85-0.96 11.5-3.91 17-6.57 5.51-2.67 13.03-7.35 16.75-10.42 3.71-3.07 9.24-8.62 12.28-12.33 3.04-3.71 7.3-10.35 9.45-14.75 2.16-4.4 4.91-11.38 6.11-15.5 2.04-6.99 2.23-10.5 2.95-52 0.43-24.48 0.82-63.06 0.87-85.75l0.09-41.25h-30zm226.73 63.5c-0.47 67.94-0.33 83.14 0.85 90 0.78 4.54 2.75 11.74 4.38 16 1.63 4.26 4.84 10.67 7.14 14.25 2.3 3.58 7.16 9.47 10.79 13.11 3.64 3.63 9.76 8.65 13.61 11.16 3.85 2.5 10.37 5.92 14.5 7.6 4.12 1.68 12.22 3.83 18 4.78 8.89 1.47 12.03 1.56 20.5 0.62 5.5-0.61 13.6-2.29 18-3.74 4.4-1.45 11.37-4.53 15.49-6.84 4.83-2.7 10.55-7.22 16.06-12.69 4.71-4.67 10.19-10.98 12.17-14 1.98-3.02 4.97-8.88 6.64-13 1.66-4.13 3.77-10.65 4.68-14.5 1.25-5.33 1.55-10.34 1.24-21-0.37-12.55-0.75-14.99-3.65-23.5-1.78-5.23-5.11-12.65-7.39-16.5-2.29-3.85-7.33-10.31-11.2-14.36-3.87-4.04-9.97-9.3-13.54-11.68-3.58-2.38-9.88-5.72-14-7.43-4.13-1.7-11.1-3.82-15.5-4.7-5.81-1.16-11.29-1.46-20-1.1-9.42 0.39-13.67 1.06-19.75 3.13-4.26 1.45-9.89 3.72-12.5 5.03-2.61 1.31-7.23 4.25-10.25 6.52l-5.5 4.13-0.5-93.04h-29.7zm247.27-7.69c-3.58 0.49-9.65 1.84-13.5 3.01-3.85 1.16-10.38 3.85-14.5 5.98-4.13 2.12-10.65 6.49-14.5 9.71-3.85 3.21-9.17 8.52-11.83 11.79-2.65 3.27-7.01 10.45-9.68 15.95-2.81 5.79-5.56 13.36-6.56 18-1.32 6.21-1.6 11.14-1.22 22 0.4 11.77 0.91 15.27 3.19 22 1.49 4.4 4.6 11.38 6.9 15.5 2.75 4.91 7.31 10.65 13.2 16.61 6.04 6.12 11.63 10.65 17 13.78 4.4 2.56 11.49 5.77 15.75 7.14 4.26 1.36 11.01 2.98 15 3.6 4.07 0.63 11.2 0.86 16.25 0.52 4.95-0.33 12.26-1.51 16.25-2.62 3.99-1.12 10.29-3.55 14-5.41 3.71-1.86 9.11-5.24 12-7.5l5.25-4.12v17h29.5c1.24-66.48 1.16-84.45 0.53-89.5-0.54-4.4-1.96-11.15-3.14-15-1.18-3.85-3.03-9.02-4.11-11.5-1.07-2.48-4.05-7.6-6.62-11.39-2.56-3.78-7.7-9.75-11.41-13.25-3.71-3.5-9.34-8.01-12.5-10.03-3.16-2.02-8.9-4.99-12.75-6.62-3.85-1.62-9.93-3.53-13.5-4.24-3.58-0.72-10.1-1.53-14.5-1.8-4.4-0.27-10.93-0.1-14.5 0.39zm-362.5 0.94c-2.2 0.43-7.38 1.96-11.5 3.4-4.13 1.44-10.43 4.38-14 6.53-3.58 2.16-9.3 6.32-12.72 9.24-3.41 2.93-8.29 8.03-10.83 11.33-2.54 3.3-5.9 8.25-7.47 11-1.56 2.75-4.33 9.27-6.15 14.5-3.19 9.21-3.29 9.99-3.29 25.5 0 13.94 0.3 16.97 2.33 23.5 1.28 4.13 4.06 10.88 6.18 15 2.12 4.13 6.49 10.65 9.7 14.5 3.22 3.85 8.37 9.02 11.46 11.5 3.08 2.48 8.01 5.96 10.95 7.75 2.94 1.8 9.16 4.59 13.84 6.22 4.67 1.63 12.1 3.48 16.5 4.11 4.43 0.63 11.79 0.86 16.5 0.52 4.67-0.34 11.76-1.51 15.75-2.61 3.99-1.09 10.29-3.51 14-5.37 3.71-1.86 9.11-5.24 12-7.5l5.25-4.12v17h30c0-81.61-0.3-92.5-1.47-98.25-0.81-3.99-2.87-10.62-4.57-14.75-1.7-4.12-5.05-10.42-7.44-14-2.39-3.58-7.42-9.47-11.18-13.1-3.76-3.63-9.54-8.32-12.84-10.42-3.3-2.1-9.15-5.14-13-6.77-3.85-1.62-9.93-3.56-13.5-4.31-3.63-0.76-11.81-1.32-18.5-1.27-6.6 0.05-13.8 0.44-16 0.87zm532 0.04c-3.3 0.43-8.93 1.76-12.5 2.95-3.58 1.2-8.98 3.49-12 5.1-3.03 1.6-7.98 4.85-11 7.22-3.03 2.36-7.15 6.3-9.17 8.74-2.02 2.45-5.3 7.15-7.29 10.45-1.98 3.3-4.83 9.6-6.31 14l-2.71 8-0.52 105.5h30c0.5-101.31 0.51-101.52 2.8-106.5 1.26-2.75 3.51-6.77 5-8.93 1.48-2.16 5.4-5.9 8.7-8.31 3.5-2.56 8.7-5.2 12.5-6.35 3.57-1.07 8.86-1.94 11.75-1.93l5.25 0.02v-31c-6.59 0.2-11.2 0.61-14.5 1.04zm-580.5 209.95c-1.93 0.36-4.96 1.41-6.75 2.33-1.79 0.92-4.49 3.56-6 5.86-2.35 3.57-2.75 5.2-2.75 11.32 0 5.83 0.43 7.78 2.33 10.57 1.27 1.89 3.95 4.56 5.94 5.93 2.35 1.62 5.39 2.63 8.67 2.88 2.78 0.21 6.63-0.13 8.56-0.75 1.92-0.63 4.85-2.23 6.5-3.57l3-2.43-4-4.1c-8.71 4.45-10.9 4.96-13.5 4.53-1.93-0.32-4.51-1.25-5.75-2.07-1.24-0.82-2.93-3.07-3.75-4.99-0.83-1.92-1.5-4.96-1.5-6.75 0.01-1.79 0.91-4.71 2-6.5 1.1-1.79 3.24-4 4.75-4.93 1.89-1.15 4.19-1.54 7.38-1.25 2.77 0.26 5.48 1.23 6.76 2.43l2.13 2c3.82-3.87 4.71-5.34 4.45-5.75-0.26-0.41-2.16-1.59-4.22-2.61-2.06-1.02-5.33-2.07-7.25-2.33-1.93-0.26-5.08-0.18-7 0.18zm-163 3.01c0 2.99 0.03 3 6.25 3.25l6.25 0.25 0.5 31.5h7v-32h12v-6h-32zm76 16.25v19.25h28.5v-6l-21.5-0.5v-10h19v-6h-19v-10h21v-6h-28zm150.12-0.25c-0.07 10.45 0.22 19.18 0.63 19.41 0.41 0.22 1.99 0.22 3.5 0 2.7-0.4 2.75-0.54 3-8.16l0.25-7.75 18.5-0.5c0 16.79 0.05 16.99 2.25 16.51 1.24-0.26 2.81-0.49 3.5-0.5 0.95-0.01 1.25-4.48 1.25-19.01v-19h-7v16h-19v-16h-6.76zm78.95 0.44l-0.07 19.56 6.5-0.5 1-26.26c18.88 24.68 20.33 26.14 23 26.15 1.67 0 3-0.52 3-1.19 0-0.66-0.12-9.3-0.25-19.2l-0.25-18h-6.13l-0.37 26.26c-18.69-24.06-20.43-25.8-23.19-26.07l-3.18-0.32zm87.55-17.45c-2.14 1.11-4.92 3.47-6.18 5.26-1.26 1.79-2.8 5.28-3.44 7.76-0.83 3.21-0.86 5.64-0.12 8.5 0.57 2.2 2.07 5.57 3.34 7.5 1.27 1.92 4.32 4.54 6.79 5.81 3.56 1.83 5.76 2.25 10.57 2 4.63-0.24 7.02-0.96 10-3.01 2.16-1.48 4.92-4.4 6.14-6.5 1.61-2.75 2.23-5.46 2.25-9.8 0.02-3.8-0.61-7.26-1.72-9.43-0.96-1.89-3.47-4.81-5.59-6.5-3.37-2.7-4.72-3.11-11-3.33-5.57-0.21-8.02 0.18-11.04 1.74zm73.61 17.24l0.28 19.22 27 0.06-0.01-6-20.49-0.5v-32h-7.05zm77.81-17.83c-1.91 0.72-4.72 2.95-6.25 4.96-1.53 2-3.23 5.33-3.78 7.4-0.55 2.06-0.99 4.65-0.99 5.75 0 1.1 0.44 3.68 0.99 5.75 0.55 2.06 2.23 5.17 3.74 6.92 1.52 1.74 4.55 3.98 6.75 4.97 2.2 1 6.03 1.81 8.5 1.81 2.48 0 6.3-0.81 8.5-1.81 2.2-0.99 5.15-3.12 6.55-4.72 1.4-1.61 3.14-4.72 3.88-6.92 0.73-2.2 1.15-6.03 0.93-8.5-0.24-2.62-1.55-6.29-3.13-8.75-1.59-2.49-4.39-5.09-6.73-6.25-2.65-1.33-5.93-1.99-9.75-1.97-3.16 0.03-7.31 0.64-9.21 1.36zm81.03 0.47c-1.88 1.02-4.47 3.27-5.75 4.99-1.27 1.73-2.81 5.06-3.41 7.4-0.6 2.33-0.81 6.05-0.48 8.25 0.34 2.2 1.5 5.46 2.59 7.25 1.09 1.78 3.64 4.48 5.66 6 2.97 2.22 4.95 2.81 10.25 3.07 5.45 0.26 7.47-0.12 11.82-2.25l5.25-2.57v-17h-16c0 5.88 0.17 6 4.5 6h4.5c0 7.75-0.22 8.06-3.75 9.12-2.06 0.61-5.32 0.85-7.25 0.53-1.92-0.32-4.73-1.72-6.25-3.12-1.51-1.39-3.27-4.22-3.9-6.28-0.95-3.08-0.86-4.61 0.5-8.5 1.15-3.3 2.65-5.37 4.9-6.75 1.83-1.12 5.01-2 7.25-2 2.25 0 5.43 0.88 7.25 2l3.25 2c2.33-3.88 2.78-5.45 2.5-6-0.27-0.55-2.07-1.68-4-2.5-1.92-0.83-6.31-1.5-9.75-1.5-4.18 0-7.38 0.62-9.68 1.86zm68.57 2.39c1.47 2.33 4.85 7.51 7.52 11.5 4.78 7.16 4.84 7.34 4.84 15.25v8h7v-16c10.57-15.89 13.95-21.07 14.32-21.75 0.49-0.9-0.38-1.27-3.07-1.29-3.61-0.04-3.92 0.25-8.75 7.97-2.75 4.4-5.33 8.02-5.75 8.04-0.41 0.01-3-3.57-5.75-7.97-4.9-7.85-5.07-8-9.02-8h-4.02z"/>
		<path id="Path 2" class="s0" d="m304.5 560.06c-3.3 0.42-8.48 1.69-11.5 2.8-3.02 1.12-8.39 3.97-11.93 6.34-3.54 2.36-8.43 6.78-10.87 9.8-2.44 3.03-5.12 6.85-5.96 8.5-0.84 1.65-2.37 5.48-3.39 8.5-1.02 3.03-2.12 8.65-2.45 12.5-0.39 4.65-0.05 9.51 1 14.5 0.87 4.13 3.04 10.43 4.84 14 2.03 4.05 5.73 8.95 9.81 13 3.86 3.83 9 7.69 12.5 9.4 3.27 1.6 8.2 3.51 10.95 4.24 2.75 0.74 8.82 1.34 13.5 1.34 4.68 0 10.75-0.6 13.5-1.32 2.75-0.73 8.33-3.08 12.41-5.24 4.72-2.5 9.25-5.92 12.5-9.46 2.8-3.05 6.52-8.22 8.28-11.5 1.75-3.28 3.89-8.66 4.75-11.96 0.86-3.3 1.56-9.37 1.55-13.5-0.01-4.12-0.62-9.75-1.35-12.5-0.74-2.75-2.82-7.92-4.63-11.5-2.02-3.98-5.86-9.05-9.9-13.09-4.31-4.29-8.87-7.67-13.11-9.69-3.57-1.71-8.75-3.55-11.5-4.1-2.75-0.54-6.8-1.17-9-1.41-2.2-0.23-6.7-0.08-10 0.35zm173.5 2.15c-3.57 1.26-8.75 3.61-11.5 5.22-2.75 1.61-7.48 5.44-10.52 8.5-3.03 3.06-6.94 8.27-8.69 11.57-1.74 3.3-3.87 8.7-4.73 12-0.86 3.3-1.57 9.15-1.57 13 0 3.85 0.69 9.7 1.54 13 0.84 3.3 2.76 8.45 4.25 11.44 1.5 2.99 4.97 7.9 7.72 10.92 2.75 3.02 7.7 7.22 11 9.34 3.3 2.12 8.7 4.75 12 5.85 4.29 1.43 8.7 2 15.5 2.01 5.89 0 11.59-0.61 15-1.62 3.02-0.9 7.98-2.93 11-4.51 3.02-1.58 8.13-5.48 11.35-8.65 3.22-3.18 7.36-8.48 9.2-11.78 1.84-3.3 4.05-8.7 4.9-12 0.86-3.3 1.56-9.82 1.56-14.5 0.01-4.87-0.68-10.85-1.6-14-0.88-3.02-2.9-7.97-4.49-11-1.59-3.02-5.06-7.75-7.72-10.5-2.66-2.75-7.05-6.48-9.76-8.29-2.72-1.8-7.42-4.23-10.44-5.39-4.02-1.53-8.47-2.21-16.5-2.5-9.53-0.34-11.87-0.09-17.5 1.89zm184-0.62c-3.02 0.8-7.98 2.67-11 4.15-3.02 1.49-8.58 5.64-12.35 9.23-5.19 4.95-7.79 8.46-10.74 14.53-2.46 5.05-4.35 10.77-5.11 15.5-0.95 5.87-0.95 9.24 0 15.5 0.75 4.97 2.47 10.65 4.55 15 1.84 3.85 5.36 9.25 7.83 12 2.47 2.75 7.15 6.78 10.4 8.95 3.26 2.17 8.84 4.97 12.42 6.23 4.97 1.74 8.74 2.29 16 2.31 5.92 0.02 11.57-0.58 15-1.59 3.02-0.89 7.75-2.76 10.5-4.15 2.75-1.39 8.16-5.73 12.02-9.64 3.86-3.91 8.22-9.36 9.69-12.11 1.46-2.75 3.37-7.7 4.23-11 0.86-3.3 1.57-9.6 1.57-14 0-4.4-0.71-10.7-1.57-14-0.86-3.3-2.77-8.25-4.23-11-1.47-2.75-5.83-8.18-9.69-12.08-4.17-4.2-9.25-8.16-12.52-9.76-3.02-1.47-7.98-3.35-11-4.16-3.02-0.81-8.88-1.45-13-1.42-4.13 0.03-9.98 0.71-13 1.51zm175.5-0.44c-2.2 0.52-6.7 2.23-10 3.8-3.3 1.56-8.67 5.25-11.93 8.2-3.25 2.94-7.66 8.05-9.79 11.35-2.13 3.3-4.76 8.93-5.85 12.5-1.34 4.42-1.97 9.37-1.96 15.5 0.01 5.28 0.67 11.28 1.62 14.5 0.88 3.03 3.02 8.17 4.76 11.43 1.73 3.26 5.66 8.44 8.72 11.5 3.06 3.06 8.24 6.99 11.5 8.73 3.26 1.74 8.63 3.94 11.93 4.89 3.78 1.08 9.15 1.68 14.5 1.62 4.67-0.06 10.98-0.84 14-1.74 3.02-0.9 7.52-2.67 10-3.94 2.48-1.26 6.38-3.8 8.68-5.64 2.3-1.84 5.95-5.6 8.12-8.35 2.16-2.75 4.85-6.8 5.96-9 1.12-2.2 2.81-6.7 3.76-10 1.07-3.71 1.71-9.25 1.67-14.5-0.04-5.55-0.76-10.75-2.08-15-1.11-3.57-3.76-9.2-5.89-12.5-2.12-3.3-6-8.02-8.62-10.5-2.61-2.47-6.85-5.74-9.42-7.25-2.58-1.52-7.6-3.66-11.18-4.77-4.69-1.46-9-1.99-15.5-1.9-4.95 0.07-10.8 0.55-13 1.07zm-175.71 187.63c-1.49 0.94-3.4 2.96-4.25 4.47-0.85 1.51-1.55 4.66-1.57 7-0.02 2.8 0.76 5.44 2.28 7.75 1.45 2.19 3.8 4.03 6.28 4.93 3.46 1.25 4.48 1.24 7.97-0.04 2.47-0.92 4.87-2.8 6.28-4.94 1.49-2.26 2.27-4.92 2.25-7.7-0.02-2.34-0.72-5.49-1.57-7-0.84-1.51-2.86-3.54-4.5-4.5-1.63-0.96-4.65-1.74-6.71-1.72-2.06 0.01-4.97 0.8-6.46 1.75zm150.71 0.03c-1.65 1-3.79 3.47-4.75 5.5-0.96 2.03-1.75 4.59-1.75 5.69 0 1.1 0.6 3.46 1.32 5.25 0.73 1.79 2.64 4.28 4.25 5.54 1.61 1.25 4.28 2.53 5.93 2.84 1.72 0.31 4.59-0.13 6.75-1.04 2.06-0.87 4.52-2.83 5.47-4.34 0.94-1.51 1.88-4.77 2.08-7.25 0.3-3.5-0.15-5.27-2.01-8-1.31-1.92-3.48-4.06-4.83-4.74-1.35-0.67-4.04-1.24-5.96-1.24-1.92-0.01-4.85 0.8-6.5 1.79z"/>
	</g>
</svg>