<svg version="1.2" xmlns="http://www.w3.org/2000/svg" viewBox="0 0 1248 1248" width="1248" height="1248">
	<style>
		.s0 { opacity: 1;fill: #062447 } 
		.s1 { fill: #e8e5e1 } 
	</style>
	<g id="Background">
		<path id="Path 0" class="s0" d="m0 624v624h1248v-1248h-1248z"/>
		<path id="Path 1" class="s1" d="m369 511v38c-9.69-7.12-15.65-10.7-19.5-12.55-3.85-1.85-10.6-4.28-15-5.39-5.83-1.48-11.25-2.03-20-2.03-7.13 0-14.64 0.61-18.5 1.5-3.57 0.83-8.98 2.47-12 3.65-3.02 1.18-8.65 3.97-12.5 6.2-3.85 2.23-10.1 6.99-13.88 10.59-3.79 3.59-8.82 9.23-11.18 12.53-2.37 3.3-5.74 9.15-7.49 13-1.75 3.85-4.06 10.38-5.15 14.5-1.43 5.43-1.98 10.81-1.99 19.5-0.01 9.08 0.5 13.94 2.1 20 1.17 4.4 3.72 11.38 5.67 15.5 1.95 4.13 6.1 10.83 9.23 14.9 3.13 4.06 9.07 10.09 13.19 13.38 4.13 3.29 11.1 7.78 15.5 9.97 4.4 2.19 11.38 4.9 15.5 6.02 5.76 1.55 10.64 2.03 21 2.05 10.57 0.02 15.13-0.42 21-2.02 4.13-1.13 11.03-3.8 15.35-5.93 4.32-2.13 10.85-6.26 14.5-9.19 3.66-2.93 8.82-7.88 11.47-11 2.66-3.12 6.57-8.6 8.7-12.18 2.13-3.58 5.36-10.77 7.18-16l3.3-9.5 0.53-153.5h-27.03zm234.02 36.25c0.01 58.73 0.3 75.61 1.38 80.75 0.74 3.58 2.54 9.42 3.98 13 1.45 3.58 4.09 8.94 5.88 11.93 1.78 2.99 6.16 8.56 9.74 12.4 3.58 3.83 8.75 8.63 11.5 10.67 2.75 2.04 8.26 5.35 12.25 7.35 3.99 2.01 10.74 4.64 15 5.85 6.32 1.8 10.23 2.2 21.25 2.16 10.71-0.04 15.15-0.51 21.5-2.26 4.4-1.21 11.83-4.19 16.5-6.63 4.67-2.44 11.42-6.99 15-10.11 3.58-3.12 8.53-8.19 11.02-11.27 2.48-3.07 5.95-8.07 7.7-11.09 1.75-3.02 4.13-8.2 5.3-11.5 1.16-3.3 2.76-9.26 3.55-13.25 0.78-3.99 1.43-10.63 1.43-14.75 0-4.13-0.63-10.76-1.4-14.75-0.78-3.99-2.36-9.95-3.53-13.25-1.16-3.3-4-9.15-6.31-13-2.31-3.85-7.14-10.1-10.73-13.88-3.59-3.79-9.23-8.82-12.53-11.18-3.3-2.37-9.15-5.74-13-7.49-3.85-1.75-10.38-4.08-14.5-5.19-5.66-1.52-10.56-2.01-20-2-9.51 0.02-14.41 0.53-20.5 2.15-4.4 1.17-11.15 3.64-15 5.49-3.85 1.85-9.25 5-12 6.99l-5 3.62-0.5-75.01h-28zm-115.52-17.21c-3.3 0.52-9.15 1.89-13 3.06-3.85 1.16-9.7 3.48-13 5.14-3.3 1.66-8.02 4.41-10.5 6.1-2.47 1.68-6.91 5.34-9.87 8.11-2.95 2.78-7.28 7.75-9.63 11.05-2.34 3.3-5.27 8.02-6.52 10.5-1.25 2.48-3.34 7.65-4.65 11.5-1.31 3.85-2.88 11.05-3.5 16-0.82 6.54-0.83 11.32-0.04 17.5 0.59 4.67 2.22 12.1 3.62 16.5 1.4 4.4 4.58 11.49 7.07 15.75 2.49 4.26 7.34 10.74 10.77 14.38 3.44 3.65 8.95 8.57 12.25 10.94 3.3 2.36 9.04 5.67 12.75 7.36 3.72 1.69 10.02 3.98 14 5.09 3.99 1.11 11.08 2.3 15.75 2.64 4.77 0.35 12.02 0.12 16.5-0.52 4.4-0.62 11.15-2.2 15-3.49 3.85-1.3 9.25-3.5 12-4.89 2.75-1.4 7.48-4.4 10.5-6.68l5.5-4.13 1 16.55 26.5 0.5c-0.6-92.03-0.68-93.74-2.88-101-1.25-4.12-4.23-11.33-6.63-16-2.75-5.36-6.87-11.23-11.17-15.89-3.75-4.07-9.52-9.33-12.82-11.68-3.3-2.35-8.92-5.65-12.5-7.33-3.57-1.68-10.1-3.97-14.5-5.09-4.4-1.11-12.05-2.22-17-2.46-4.95-0.24-11.7-0.02-15 0.49zm364-0.04c-2.75 0.49-8.6 2.04-13 3.44-4.4 1.4-11.15 4.32-15 6.48-3.85 2.16-9.92 6.34-13.5 9.3-3.57 2.96-8.86 8.51-11.74 12.33-2.88 3.82-6.81 10.1-8.72 13.95-1.91 3.85-4.44 10.6-5.62 15-1.6 5.94-2.16 10.96-2.18 19.5-0.01 7.49 0.57 13.94 1.67 18.5 0.94 3.85 2.94 9.92 4.44 13.5 1.51 3.58 4.71 9.42 7.11 13 2.39 3.58 7.8 9.88 12.02 14 4.42 4.32 10.81 9.28 15.09 11.69 4.09 2.31 10.81 5.32 14.93 6.7 4.13 1.38 10.88 3.03 15 3.68 4.39 0.69 11.45 0.94 17 0.59 5.23-0.33 12.88-1.55 17-2.71 4.13-1.16 10.65-3.58 14.5-5.38 3.85-1.8 9.48-5.15 12.5-7.45l5.5-4.17 1 16.55 26.5 0.5c0-79.27-0.28-88.38-1.58-94.75-0.87-4.26-2.88-10.9-4.47-14.75-1.58-3.85-4.77-9.92-7.07-13.5-2.31-3.58-6.48-8.92-9.28-11.87-2.81-2.95-7.8-7.29-11.1-9.63-3.3-2.34-8.36-5.44-11.25-6.88-2.88-1.44-9.18-3.78-14-5.19-6.35-1.86-11.77-2.67-19.75-2.95-6.05-0.21-13.25 0.02-16 0.52zm167 1.62c-3.3 0.8-9.82 3.3-14.5 5.55-6.76 3.27-10.15 5.76-16.59 12.22-6.06 6.07-9.01 10-11.74 15.61-2 4.13-4.32 10.2-5.16 13.5-1.26 4.99-1.52 14.79-1.51 58.25v52.25h26c0.5-101.32 0.55-102.63 2.69-108 1.2-3.02 4.35-7.93 7-10.91 2.65-2.97 6.5-6.46 8.56-7.75 2.07-1.29 6.45-3.24 9.75-4.34 3.3-1.1 7.8-2 10-2h4v-26c-9.68 0.13-15.2 0.82-18.5 1.62zm-756.5 198.88v3.5l10.5-0.02c1.15 10.48 1.49 17.46 1.5 22.27v8.75h7v-31h12v-7h-31zm75.53-2.86c-0.47 0.38-0.78 3.88-0.69 7.78 0.09 3.89 0.51 12.14 0.92 18.34l0.74 11.25 27.5-0.01v-6h-21v-9l18.5-0.5v-6l-18.5-0.5v-9h21l-0.5-6.5c-21.01-0.43-27.5-0.24-27.97 0.14zm83.08 1.4c-2.13 1.07-4.92 3.42-6.18 5.21-1.26 1.79-2.75 5.27-3.3 7.75-0.71 3.15-0.67 6 0.12 9.5 0.62 2.75 2.28 6.31 3.69 7.92 1.41 1.61 4.36 3.74 6.56 4.73 2.2 0.99 6.03 1.81 8.5 1.81 2.48 0 6.3-0.82 8.5-1.82 2.2-1 4.68-2.59 5.5-3.54 1.35-1.53 1.28-1.93-0.67-3.9l-2.17-2.2c-5.35 3.57-8.23 4.45-10.66 4.47-2.29 0.01-5.39-0.83-7.25-1.97-2.13-1.31-3.63-3.29-4.37-5.75-0.66-2.19-0.82-5.41-0.38-7.75 0.44-2.43 1.87-5.08 3.62-6.75 2.32-2.21 3.81-2.75 7.63-2.75 2.99 0.01 5.96 0.75 8 2l3.25 2c3.1-3.87 3.78-5.45 3.5-6-0.27-0.55-2.41-1.89-4.75-2.98-2.64-1.23-6.33-1.97-9.75-1.95-3.42 0.01-6.97 0.76-9.39 1.97zm152.89-1.37c-0.46 0.36-0.76 8.91-0.66 19l0.16 18.33h7l0.5-25.1c18.19 23.94 19.28 25.02 22.25 25.06l3.25 0.04v-37c-3.87 0-5.33 0-5.75-0.01-0.41 0-0.97 5.41-1.25 12.01l-0.5 12.02c-17.4-22.97-19.43-25.07-21.58-25.05-1.42 0.02-2.96 0.33-3.42 0.7zm89.82 1.48c-2.29 1.18-5.32 3.76-6.72 5.74-1.41 1.99-2.85 5.63-3.2 8.11-0.36 2.48-0.37 6.19-0.03 8.25 0.36 2.14 2.03 5.32 3.88 7.41 1.79 2.02 5.05 4.48 7.25 5.48 2.2 1 5.92 1.83 8.25 1.84 2.34 0.01 5.94-0.68 8-1.54 2.07-0.86 4.59-2.32 5.61-3.25 1.02-0.93 2.71-3.38 3.75-5.44 1.17-2.33 1.89-5.84 1.89-9.25 0-3.02-0.48-6.74-1.06-8.25-0.59-1.51-2.05-3.82-3.25-5.13-1.2-1.31-3.99-3.21-6.19-4.23-2.2-1.02-6.25-1.86-9-1.87-3.18-0.01-6.52 0.76-9.18 2.13zm76.23-1.53c-0.49 0.39-0.81 8.96-0.71 19.05l0.16 18.33h26v-6h-18l-0.5-31.5c-4.71-0.46-6.47-0.27-6.95 0.12zm77.77 1.53c-2.29 1.18-5.44 3.95-7 6.17-2.45 3.51-2.82 4.96-2.82 11.18 0 5.99 0.42 7.78 2.57 11.07 1.42 2.16 4.34 4.83 6.5 5.93 2.75 1.4 5.91 2 10.51 2 5.49 0 7.26-0.45 10.75-2.75 2.29-1.51 5.02-4.44 6.05-6.5 1.03-2.06 2.19-5.1 2.57-6.75 0.37-1.65 0.16-5.02-0.47-7.5-0.64-2.48-2.36-6.05-3.82-7.94-1.46-1.89-4.46-4.25-6.66-5.23-2.2-0.98-6.25-1.8-9-1.81-3.18-0.01-6.52 0.76-9.18 2.13zm84.71-0.76c-1.9 0.73-4.72 2.96-6.25 4.96-1.53 2.01-3.27 5.56-3.88 7.9-0.61 2.34-0.82 6.27-0.46 8.75 0.35 2.48 1.47 5.85 2.47 7.5 1.01 1.65 3.36 4.01 5.21 5.25 1.91 1.26 5.78 2.52 8.88 2.88 3.45 0.4 6.99 0.17 9.5-0.63 2.2-0.7 5.24-2.12 6.75-3.14 2.62-1.77 2.75-2.25 2.75-9.86v-8h-16c0 5.89 0.17 6 4.5 6 4.48 0 4.5 0.02 4.5 3.5 0 2.8-0.5 3.7-2.5 4.5-1.37 0.55-4.41 1.02-6.75 1.03-2.64 0.03-5.19-0.67-6.75-1.84-1.37-1.03-3.13-3.4-3.91-5.28-0.91-2.21-1.19-5-0.79-7.91 0.38-2.73 1.52-5.4 2.91-6.79 1.26-1.26 3.87-2.69 5.79-3.18 1.93-0.48 4.63-0.53 6-0.11 1.38 0.43 3.52 1.29 4.75 1.93 1.84 0.94 2.63 0.83 4.29-0.6 1.11-0.96 2.01-2.31 2-3-0.02-0.69-1.95-2.14-4.29-3.23-2.63-1.23-6.33-1.97-9.75-1.96-3.02 0.01-7.06 0.61-8.97 1.33zm67.37 0.36c0.4 0.96 3.6 6.25 7.13 11.75 6.35 9.91 6.41 10.06 6.44 17.25l0.03 7.25h7c0.04-14.44 0.1-14.58 6.45-24.5 3.53-5.5 6.67-10.79 6.98-11.75 0.47-1.44-0.04-1.75-2.93-1.75-3.27 0-3.84 0.52-8.75 8.03-2.88 4.42-5.52 7.68-5.85 7.25-0.34-0.43-2.7-4.04-5.25-8.03-4.38-6.83-4.86-7.25-8.3-7.25-3.09 0-3.55 0.27-2.95 1.75zm-478.4 17.75v18.5h7v-15h18v15c6.64 0 7.01-0.29 7.07-2.75 0.04-1.51 0.26-6.8 0.49-11.75 0.23-4.95 0.2-12.04-0.07-15.75l-0.49-6.75h-7v15h-18v-15h-7z"/>
		<path id="Path 2" class="s0" d="m491.5 555.94c-2.75 0.42-7.48 1.56-10.5 2.53-3.02 0.98-7.98 3.25-11 5.05-3.02 1.8-8.31 6.24-11.75 9.88-4.02 4.24-7.47 9.19-9.67 13.85-1.89 3.99-3.98 10.17-4.65 13.75-0.69 3.64-0.99 9.58-0.68 13.5 0.31 3.85 1.53 9.92 2.72 13.5 1.19 3.57 3.79 8.97 5.78 12 1.99 3.02 5.89 7.7 8.68 10.38 2.79 2.69 7.09 6.06 9.57 7.48 2.48 1.43 7.43 3.64 11 4.93 3.57 1.28 9.88 2.57 14 2.87 4.97 0.35 10.03 0 15-1.05 4.13-0.88 10.42-3.04 14-4.8 4.23-2.09 8.96-5.68 13.54-10.26 3.95-3.95 8.42-9.69 10.19-13.05 1.73-3.3 3.85-8.7 4.71-12 0.86-3.3 1.56-9.6 1.55-14-0.02-4.4-0.73-10.7-1.59-14-0.86-3.3-2.98-8.7-4.7-12-1.72-3.31-6.06-8.92-9.67-12.5-3.6-3.58-9.24-7.92-12.54-9.66-3.29-1.74-8.47-3.85-11.49-4.68-3.02-0.84-8.2-1.74-11.5-2-3.3-0.26-8.25-0.14-11 0.28zm366-0.3c-1.65 0.25-5.48 1.16-8.5 2.01-3.02 0.86-8.2 2.93-11.5 4.6-3.66 1.84-8.75 5.81-13.03 10.14-3.89 3.93-8.43 9.79-10.17 13.11-1.72 3.3-3.84 8.7-4.7 12-0.86 3.3-1.57 9.15-1.59 13-0.01 3.85 0.67 9.7 1.51 13 0.84 3.3 2.84 8.7 4.45 12 1.61 3.3 5.12 8.47 7.8 11.5 2.68 3.02 7.88 7.41 11.55 9.75 3.67 2.34 9.49 5.24 12.93 6.46 5.03 1.78 8.5 2.22 17.75 2.24 9.31 0.03 12.74-0.38 18-2.18 3.58-1.22 9.2-3.94 12.5-6.06 3.3-2.11 8.39-6.51 11.3-9.77 2.92-3.27 6.64-8.64 8.27-11.94 1.63-3.3 3.63-8.48 4.44-11.5 0.81-3.03 1.47-8.76 1.48-12.75 0-3.99-0.48-9.61-1.08-12.5-0.6-2.89-2.73-8.63-4.73-12.75-2.56-5.27-5.59-9.43-10.2-14-3.61-3.58-9.25-7.92-12.52-9.65-3.28-1.74-8.44-3.88-11.46-4.75-3.02-0.88-8.65-1.78-12.5-2.01-3.85-0.22-8.35-0.2-10 0.05zm-558.5 1.98c-3.02 0.82-8.16 2.93-11.41 4.69-3.25 1.75-8.53 5.66-11.75 8.69-3.21 3.02-7.43 8.2-9.37 11.5-1.95 3.3-4.47 8.92-5.6 12.5-1.4 4.44-2.08 9.35-2.13 15.5-0.04 5.86 0.55 11.09 1.7 15 0.97 3.3 2.83 8.02 4.12 10.5 1.29 2.47 4.05 6.63 6.14 9.23 2.09 2.59 6.28 6.6 9.3 8.89 3.02 2.3 8.43 5.5 12 7.12 3.57 1.63 9.87 3.45 14 4.06 5.61 0.83 9.64 0.81 16-0.08 6.12-0.86 10.6-2.23 16-4.92 4.53-2.25 10.02-6.12 13.85-9.76 3.5-3.32 7.84-8.52 9.65-11.54 1.82-3.03 4.25-8.65 5.42-12.5 1.46-4.81 2.12-9.66 2.11-15.5-0.01-4.68-0.73-11.2-1.59-14.5-0.86-3.3-3-8.7-4.75-12-1.76-3.3-6.12-8.93-9.69-12.5-3.57-3.58-9.2-7.93-12.5-9.69-3.3-1.75-8.7-3.89-12-4.75-3.46-0.91-9.81-1.54-15-1.5-4.95 0.04-11.48 0.74-14.5 1.56zm370.25-0.05c-2.89 0.78-8.06 2.84-11.5 4.57-3.9 1.96-8.92 5.81-13.34 10.25-5.04 5.05-8.05 9.13-10.39 14.11-1.81 3.85-3.9 9.92-4.64 13.5-0.74 3.57-1.35 8.3-1.35 10.5 0 2.2 0.67 7.15 1.47 11 0.81 3.85 3.02 10.15 4.91 14 2.22 4.53 5.66 9.25 9.76 13.37 3.48 3.5 9.03 7.84 12.33 9.63 3.3 1.8 8.48 4.11 11.5 5.13 4.01 1.35 8.35 1.84 16 1.82 8.07-0.02 12-0.54 17-2.21 3.58-1.2 9.2-3.93 12.5-6.06 3.3-2.13 8.29-6.3 11.09-9.28 2.81-2.97 6.47-8.1 8.14-11.4 1.68-3.3 3.78-8.48 4.67-11.5 0.94-3.19 1.62-9.07 1.61-14 0-4.68-0.71-11.2-1.57-14.5-0.86-3.3-2.98-8.7-4.72-12-1.75-3.33-6.17-9-9.93-12.75-4.77-4.74-8.95-7.78-14.04-10.19-3.99-1.9-9.27-3.91-11.75-4.48-2.48-0.57-8.55-1.01-13.5-0.99-4.95 0.02-11.36 0.69-14.25 1.48zm153.88 176.55c-1.85 0.49-4.44 2.24-5.75 3.89-1.86 2.33-2.38 4.2-2.38 8.49 0 4.95 0.35 5.85 3.5 9 2.83 2.83 4.26 3.5 7.5 3.5 2.2 0 5.24-0.61 6.75-1.36 1.51-0.75 3.54-3 4.5-5 0.96-2 1.75-4.77 1.75-6.14 0-1.38-0.79-4.12-1.75-6.1-0.96-1.98-2.65-4.16-3.75-4.84-1.1-0.68-3.12-1.49-4.5-1.79-1.37-0.3-4.02-0.14-5.87 0.35zm-158.63 3.28c-2.9 2.98-3.31 4.09-3.4 9-0.09 5.13 0.2 5.9 3.4 9.1 3.01 3.01 4.16 3.5 8.25 3.51 2.95 0 5.67-0.66 7.19-1.75 1.34-0.97 3.03-3.22 3.75-5.01 0.72-1.79 1.31-4.6 1.31-6.25 0-1.65-0.67-4.35-1.5-6-0.83-1.65-2.51-3.68-3.75-4.51-1.24-0.83-4.43-1.5-7.1-1.5-4.2 0.01-5.29 0.47-8.15 3.41z"/>
	</g>
</svg>