<svg version="1.2" xmlns="http://www.w3.org/2000/svg" viewBox="0 0 1248 1248" width="1248" height="1248">
	<style>
		.s0 { opacity: 1;fill: #faf6f1 } 
		.s1 { fill: #d09835 } 
	</style>
	<g id="Background">
		<path id="Path 0" class="s0" d="m0 624v624h1248v-1248h-1248z"/>
		<path id="Path 1" class="s1" d="m335.98 479.75c0 26.81-0.34 49.26-0.75 49.89-0.48 0.75-3.47-1.06-8.73-5.26-4.4-3.52-11.15-7.93-15-9.79-3.85-1.87-10.38-4.45-14.5-5.74-6.64-2.08-9.45-2.35-24.5-2.35-13.4 0-18.48 0.39-24 1.86-3.85 1.02-10.83 3.64-15.5 5.82-4.68 2.18-11.2 5.9-14.5 8.28-3.3 2.37-8.97 7.4-12.61 11.18-3.63 3.77-8.48 9.78-10.78 13.36-2.3 3.58-5.49 9.65-7.09 13.5-1.59 3.85-3.69 10.15-4.64 14-1.24 4.98-1.75 11.05-1.75 21 0 11.22 0.43 15.64 2.18 22.25 1.21 4.54 3.23 10.61 4.5 13.5 1.28 2.89 4.49 8.63 7.15 12.75 2.65 4.13 7.8 10.47 11.43 14.11 3.64 3.63 9.76 8.61 13.61 11.07 3.85 2.46 9.02 5.4 11.5 6.54 2.47 1.13 7.2 2.95 10.5 4.04 3.3 1.08 9.15 2.53 13 3.22 4.47 0.81 11.7 1.08 20 0.75 7.53-0.29 15.73-1.23 19.5-2.24 3.57-0.95 9.65-3.16 13.5-4.91 3.85-1.75 9.92-5.26 13.5-7.8 3.57-2.54 7.85-6.01 9.5-7.71 2.16-2.22 3.21-2.73 3.73-1.83 0.41 0.69 0.75 5.2 0.75 10.01l0.02 8.75h30v-247h-30zm262.02 73.25v122h30l-0.05-18.5c4.3 4.07 8.25 7.08 11.55 9.31 3.3 2.23 8.47 5.19 11.5 6.59 3.02 1.39 9.1 3.53 13.5 4.74 6.45 1.78 10.6 2.2 21.5 2.18 10.64-0.02 15.19-0.48 21.5-2.19 4.4-1.19 11.15-3.64 15-5.45 3.85-1.82 9.25-4.82 12-6.68 2.75-1.86 7.86-6.11 11.36-9.44 3.5-3.33 8.28-8.76 10.63-12.06 2.35-3.3 5.67-8.81 7.39-12.25 1.71-3.44 4.31-10.19 5.76-15 2.31-7.62 2.66-10.55 2.7-22.75 0.03-11.62-0.35-15.36-2.23-22-1.24-4.4-3.84-11.38-5.76-15.5-1.92-4.13-5.43-10.2-7.79-13.5-2.37-3.3-7.65-9.15-11.74-13-4.09-3.85-10.56-8.84-14.38-11.09-3.82-2.24-9.87-5.24-13.44-6.65-3.58-1.42-10.33-3.34-15-4.28-6.32-1.27-11.46-1.58-20-1.21-6.33 0.28-14.2 1.23-17.5 2.11-3.3 0.89-10.5 3.85-16 6.6-5.5 2.74-12.37 7.02-15.25 9.5l-5.25 4.52v-98h-30zm-138.5-45.35c-3.85 0.81-10.6 2.94-15 4.73-4.4 1.78-10.48 4.83-13.5 6.78-3.03 1.95-8.13 5.75-11.34 8.44-3.21 2.7-8.57 8.5-11.91 12.9-3.35 4.4-7.76 11.6-9.81 16-2.05 4.4-4.56 11.15-5.58 15-1.41 5.29-1.86 10.55-1.86 21.5 0 10.98 0.45 16.2 1.86 21.5 1.03 3.85 3.31 10.15 5.06 14 1.75 3.85 5.18 9.92 7.61 13.5 2.43 3.58 7.12 9.15 10.44 12.39 3.31 3.25 8.73 7.72 12.03 9.95 3.3 2.22 9.6 5.73 14 7.78 4.7 2.2 12.31 4.64 18.5 5.91 8.4 1.74 12.49 2.07 20.5 1.62 5.5-0.31 12.7-1.27 16-2.13 3.3-0.86 8.47-2.53 11.5-3.72 3.02-1.18 7.97-3.7 11-5.58 3.02-1.89 7.63-5.18 10.25-7.33l4.75-3.89v18h30v-164h-30c0 13.17-0.34 17.01-0.75 17.03-0.42 0.02-1.65-0.93-2.75-2.12-1.1-1.18-4.48-3.84-7.5-5.89-3.03-2.06-7.98-4.99-11-6.51-3.03-1.53-9.78-3.85-15-5.16-7.23-1.81-12.02-2.36-20-2.28-5.78 0.05-13.65 0.76-17.5 1.58zm398-1.23c-0.55 0.21-4.38 1.14-8.5 2.08-4.13 0.93-11.33 3.49-16 5.67-4.68 2.18-11.2 5.9-14.5 8.26-3.3 2.37-8.9 7.4-12.44 11.19-3.54 3.78-8.01 9.36-9.93 12.38-1.93 3.02-4.77 8.31-6.32 11.75-1.55 3.44-3.79 10.19-4.99 15-1.59 6.43-2.17 11.8-2.17 20.25 0 8.43 0.59 13.9 2.2 20.5 1.23 5.07 4.26 13.11 6.92 18.41 2.6 5.18 7.22 12.38 10.28 16 3.05 3.62 8.68 9.22 12.5 12.43 3.88 3.27 10.91 7.76 15.95 10.18 4.95 2.38 12.82 5.36 17.5 6.62 6.82 1.85 11.06 2.29 21.5 2.29 9.23-0.01 15.02-0.54 20-1.82 3.85-0.99 10.6-3.51 15-5.61 4.4-2.09 10.92-6.08 14.5-8.86l6.5-5.04 0.5 16.9h31l-0.5-164.5h-30l-0.5 17.5c-9.69-7.86-16.1-11.89-20.5-14.03-4.4-2.13-10.7-4.62-14-5.53-3.69-1.01-11.22-1.79-19.5-2.03-7.43-0.21-13.95-0.21-14.5 0.01zm195 3.59c-2.2 0.44-6.93 1.96-10.5 3.38-3.58 1.42-9.2 4.75-12.5 7.39-3.3 2.64-7.8 7.21-10 10.16l-4 5.36-0.5-25.3c-10.47-0.2-15.08-0.29-17-0.33-1.93-0.04-5.64 0.02-8.25 0.13l-4.75 0.2v164h30c0.56-91.18 0.68-93.77 2.64-99 1.14-3.02 3.33-7.98 4.86-11 1.54-3.02 5.54-8.27 8.89-11.65 3.95-3.98 8.4-7.24 12.61-9.23 3.57-1.69 8.97-3.54 12-4.11 3.02-0.57 8.31-1.03 11.75-1.02l6.25 0.01c0-20.92-0.23-27.67-0.5-28.5-0.4-1.18-2.24-1.48-8.75-1.39-4.54 0.06-10.05 0.47-12.25 0.9zm-639 219.83c-1.65 0.42-4.45 1.65-6.22 2.75-1.77 1.11-4.6 3.78-6.28 5.96-2.22 2.85-3.25 5.48-3.71 9.45-0.45 3.94-0.16 6.85 1.04 10.25 1.05 3.01 3.08 5.94 5.52 8 2.12 1.79 5.61 3.81 7.75 4.48 2.14 0.68 5.47 1.25 7.4 1.26 1.92 0.02 5.52-0.63 8-1.45 2.47-0.81 5.4-2.41 6.5-3.55l2-2.06-4.47-4.43c-5.84 3.44-9.22 4.45-11.28 4.47-2.07 0.02-5.33-0.64-7.25-1.47-1.93-0.83-4.43-2.96-5.56-4.75-1.58-2.5-1.98-4.55-1.75-8.91 0.24-4.38 0.87-6.28 2.81-8.38 1.37-1.49 3.96-3.33 5.75-4.09 1.78-0.75 4.71-1.38 6.5-1.4 1.86-0.02 4.84 1.05 7 2.5l3.75 2.53c3.04-3.49 3.94-4.84 3.96-5.25 0.02-0.41-1.65-1.86-3.71-3.21-2.4-1.58-5.74-2.64-9.25-2.96-3.03-0.26-6.85-0.15-8.5 0.26zm262 0.05c-1.65 0.43-4.35 1.48-6 2.35-1.65 0.86-3.99 2.63-5.2 3.91-1.21 1.29-2.89 4.04-3.75 6.1-0.85 2.06-1.56 5.44-1.57 7.5 0 2.06 0.3 5.33 0.69 7.25 0.45 2.25 2.33 5.12 5.26 8.03 2.63 2.61 6.26 5.04 8.57 5.73 2.2 0.66 5.57 1.22 7.5 1.23 1.92 0.02 5.52-0.63 8-1.43 2.74-0.9 5.96-3.05 8.25-5.52 2.06-2.22 4.2-5.17 4.75-6.54 0.55-1.38 1-4.75 1-7.5 0-2.75-0.7-6.69-1.56-8.75-0.86-2.06-2.54-4.81-3.75-6.1-1.21-1.29-3.77-3.16-5.69-4.16-1.93-1-5.75-2.06-8.5-2.35-2.75-0.29-6.35-0.18-8 0.25zm166-0.03c-1.65 0.4-4.76 1.84-6.9 3.19-2.15 1.35-5.05 4.47-6.46 6.95-1.96 3.44-2.56 5.91-2.56 10.5 0 4.24 0.65 7.25 2.21 10.25 1.21 2.34 3.67 5.32 5.46 6.63 1.78 1.3 5.05 2.94 7.25 3.63 2.48 0.79 6.08 1.02 9.5 0.62 3.02-0.35 7.28-1.64 9.45-2.88 2.18-1.24 5.25-4.05 6.83-6.25 1.87-2.61 3.06-5.74 3.42-9 0.32-2.88 0.02-6.7-0.71-9-0.7-2.2-2.11-5.24-3.13-6.75-1.03-1.51-3.78-3.84-6.11-5.17-2.43-1.38-6.62-2.64-9.75-2.94-3.03-0.28-6.85-0.19-8.5 0.22zm91 0.03c-1.65 0.43-4.47 1.53-6.25 2.44-1.79 0.92-4.32 3.13-5.62 4.92-1.3 1.79-2.88 4.83-3.51 6.75-0.64 1.92-1.14 5.3-1.12 7.5 0.02 2.2 0.85 5.8 1.84 8 0.99 2.2 3.57 5.45 5.73 7.22 2.16 1.77 5.73 3.73 7.93 4.36 2.2 0.62 6.25 0.94 9 0.69 2.75-0.24 7.13-1.41 9.75-2.61l4.75-2.16-0.5-16.5h-7c-0.48 11.87-0.76 12.6-3 13.5-1.38 0.55-4.08 1-6 1-1.93 0-4.97-0.69-6.75-1.53-1.79-0.85-4.14-2.76-5.21-4.25-1.11-1.54-2.12-4.89-2.34-7.72-0.31-4.01 0.09-5.69 1.98-8.5 1.29-1.92 3.92-4.29 5.84-5.25 1.91-0.96 4.83-1.76 6.48-1.77 1.65-0.01 5.12 1 7.73 2.25l4.73 2.27c4.52-4.5 4.52-4.53 2.54-6.03-1.1-0.83-3.13-2.13-4.5-2.89-1.38-0.75-4.98-1.62-8-1.92-3.03-0.29-6.85-0.19-8.5 0.23zm-694 0.78c-0.46 0.36-0.76 1.71-0.67 3 0.16 2.2 0.55 2.33 7.17 2.33h7v35h8v-35h13v-6c-26.1 0-34.05 0.3-34.5 0.67zm81.5 19.83v20.5h31v-6l-23.5-0.5v-11c10.85 0.56 15.46 0.45 17.25 0.11 2.81-0.53 3.21-0.98 3-3.36l-0.25-2.75c-15.13-0.77-19.52-1.34-19.51-1.75 0-0.41 0.01-2.77 0.01-5.25v-4.5h22v-6h-30zm164 0v20.5l6.5 0.02c1.25-12.8 1.7-16.57 1.8-16.64 0.11-0.06 4.13-0.4 8.95-0.75 4.81-0.35 9.42-0.4 10.25-0.13 1.17 0.39 1.5 2.33 1.5 9v8.5h7v-41h-7v17l-21.5-0.5-0.47-16.5h-7.03zm88.22-0.25l0.28 20.25 7.5 0.5 0.5-27.23c21.56 26.63 22.15 27.18 25.75 27.2l3.75 0.03c0-19.76-0.34-28.99-0.75-33.26l-0.75-7.76-6.5 0.02c0 20.92-0.34 26.97-0.75 26.93-0.42-0.03-5.48-6.08-11.25-13.44-10.12-12.89-10.64-13.38-14.28-13.44l-3.77-0.05zm179.77 0.25v20.5h30v-6h-22v-35h-8zm246.22-19.25c0.29 0.69 3.74 6.65 7.68 13.25 7.11 11.94 7.14 12.03 7.12 19.25l-0.02 7.25h8l-0.04-14.5 16.04-26.5c-7.98 0-8.02 0.03-13.75 9.55l-5.75 9.56c-2.85-3.57-5.55-7.88-7.84-11.88-4.05-7.08-4.25-7.26-8.06-7.25-2.74 0.01-3.75 0.39-3.38 1.27z"/>
		<path id="Path 2" class="s0" d="m255 538.34c-4.13 1.24-9.53 3.45-12 4.94-2.47 1.48-6.63 4.38-9.23 6.45-2.59 2.08-6.6 6.24-8.89 9.27-2.29 3.02-5.54 8.42-7.22 12-1.67 3.58-3.62 9.2-4.32 12.5-0.7 3.3-1.28 8.47-1.29 11.5-0.01 3.02 0.65 8.65 1.45 12.5 0.81 3.85 3.15 10.37 5.2 14.5 2.29 4.63 6.09 9.99 9.91 14 3.41 3.58 8.83 8.07 12.04 9.99 3.22 1.92 8.78 4.59 12.35 5.94 5.57 2.09 8.29 2.45 19 2.5 10.74 0.06 13.56-0.28 20-2.41 4.13-1.36 10.09-4.18 13.25-6.25 3.16-2.07 7.77-5.8 10.25-8.27 2.48-2.48 6.31-7.31 8.53-10.75 2.21-3.44 5.02-9.17 6.25-12.75 1.8-5.3 2.21-8.72 2.21-18.5 0-9.09-0.45-13.33-1.87-17.5-1.02-3.03-3.27-8.2-4.99-11.5-1.74-3.36-6.21-9.11-10.12-13.06-4.97-5-9.2-8.15-14.51-10.78-4.12-2.04-9.98-4.37-13-5.17-3.15-0.84-9.76-1.45-15.5-1.42-7.36 0.03-11.98 0.63-17.5 2.27zm209.5-0.95c-2.75 0.67-7.7 2.47-11 4.01-3.3 1.53-8.48 4.74-11.5 7.14-3.02 2.39-7.11 6.52-9.09 9.16-1.97 2.64-4.51 6.38-5.65 8.3-1.13 1.92-3.02 6.65-4.18 10.5-1.17 3.85-2.37 9.7-2.67 13-0.34 3.64 0.06 9.15 1 14 0.88 4.48 3.19 11.3 5.26 15.5 2.61 5.29 5.79 9.58 10.77 14.56 4.58 4.57 9.35 8.19 13.56 10.27 3.57 1.76 8.98 3.87 12 4.68 3.02 0.81 9.77 1.46 15 1.46 5.39 0 12.1-0.68 15.5-1.57 3.3-0.87 9.14-3.22 12.97-5.24 3.83-2.01 9.27-5.91 12.08-8.66 2.81-2.75 6.75-7.48 8.76-10.5 2.01-3.03 4.64-8.2 5.85-11.5 1.64-4.48 2.3-8.91 2.6-17.5 0.36-10.25 0.12-12.37-2.16-19.5-1.41-4.4-3.91-10.03-5.57-12.5-1.65-2.48-5.82-7.32-9.27-10.77-3.94-3.95-8.85-7.57-13.26-9.79-3.85-1.93-9.7-4.16-13-4.94-3.3-0.79-9.82-1.41-14.5-1.38-4.68 0.03-10.75 0.6-13.5 1.27zm205 0.48c-3.3 0.95-8.92 3.28-12.5 5.18-3.64 1.93-9.37 6.31-13.01 9.95-4.06 4.06-7.86 9.13-10.11 13.5-1.97 3.85-4.22 9.25-4.98 12-0.77 2.76-1.39 9.47-1.38 15 0.01 7.55 0.54 11.59 2.18 16.5 1.19 3.58 3.4 8.75 4.91 11.5 1.51 2.75 5.93 8.15 9.82 12 3.89 3.85 9.77 8.42 13.07 10.17 3.3 1.74 8.7 3.87 12 4.73 3.4 0.88 10.12 1.57 15.5 1.57 5.23 0 11.98-0.65 15-1.46 3.02-0.81 8.42-2.92 12-4.69 4.29-2.12 9.09-5.78 14.11-10.77 5.33-5.29 8.52-9.49 10.69-14.05 1.7-3.58 3.84-9.65 4.75-13.5 1.2-5.03 1.52-9.53 1.14-16-0.33-5.85-1.31-11.1-2.79-15-1.25-3.3-3.28-7.8-4.5-10-1.23-2.2-4.41-6.43-7.06-9.4-2.66-2.97-7.32-7.05-10.34-9.06-3.02-2.02-7.75-4.6-10.5-5.74-2.75-1.15-7.36-2.58-10.25-3.19-2.89-0.61-8.96-1.08-13.5-1.04-4.61 0.04-10.89 0.83-14.25 1.8zm187-0.32c-2.75 0.76-8.38 3.05-12.5 5.08-5.15 2.54-9.55 5.76-14.06 10.29-3.6 3.62-7.68 8.6-9.06 11.08-1.38 2.47-3.57 7.2-4.88 10.5-2.01 5.1-2.37 7.79-2.4 18-0.03 8.58 0.44 13.57 1.66 17.5 0.94 3.02 3.31 8.2 5.28 11.5 1.97 3.3 6.36 8.82 9.77 12.27 3.58 3.62 8.93 7.69 12.69 9.65 3.58 1.86 8.98 4.11 12 4.99 3.46 1.01 9.21 1.6 15.5 1.59 5.56-0.01 12.44-0.68 15.5-1.49 3.02-0.81 8.42-2.93 12-4.72 3.58-1.78 9.16-5.73 12.41-8.77 3.26-3.03 7.49-8 9.42-11.02 1.92-3.03 4.59-8.42 5.93-12 1.68-4.49 2.6-9.43 2.96-16 0.4-7.07 0.1-11.16-1.15-16-0.92-3.58-3.08-9.42-4.78-13-2.11-4.41-5.39-8.77-10.2-13.57-3.9-3.88-9.57-8.46-12.59-10.17-3.02-1.72-8.87-4.05-13-5.19-5.23-1.45-10.23-2.05-16.5-1.98-4.95 0.05-11.25 0.71-14 1.46zm-182.47 200.2c-1.9 0.96-4.28 3.1-5.27 4.75-1.1 1.83-1.81 4.95-1.81 8 0 3.05 0.71 6.17 1.81 8 0.99 1.65 3.37 3.79 5.27 4.75 1.91 0.96 5.05 1.75 6.97 1.75 1.92 0 5.06-0.79 6.97-1.75 1.9-0.96 4.35-3.33 5.44-5.25 1.09-1.92 1.98-5.3 1.98-7.5 0-2.2-0.89-5.58-1.98-7.5-1.09-1.92-3.54-4.29-5.44-5.25-1.91-0.96-5.05-1.75-6.97-1.75-1.92 0-5.06 0.79-6.97 1.75zm167.04 0c-1.88 0.96-4.36 3.02-5.5 4.57-1.48 2.02-2.07 4.34-2.07 8.1 0 2.9 0.59 6.36 1.31 7.68 0.72 1.32 2.52 3.3 4 4.4 2.01 1.49 4.25 2 8.86 2 5.2 0 6.59-0.39 8.84-2.5 1.48-1.38 3.31-3.74 4.09-5.25 0.77-1.51 1.4-4.44 1.4-6.5-0.01-2.06-0.91-5.21-2-7-1.1-1.79-3.46-4.15-5.25-5.25-1.79-1.09-4.83-1.99-6.75-1.99-1.92-0.01-5.04 0.78-6.93 1.74z"/>
	</g>
</svg>